# xmcd
#
# Track frame offsets:
#	150
#	12862
#	25252
#	35452
#	46492
#	58087
#	68802
#	81057
#	91280
#	101377
#	113370
#	125610
#	135587
#	147115
#	155392
#	163017
#	175060
#	184557
#
# Disc length: 2574 seconds
#
# Revision: 2
# Processed by: cddbd v1.5.2PL0 Copyright (c) Steve Scherf et al.
# Submitted via: audiograbber 1.83.01
#
DISCID=df0a0c12
DTITLE=Johnny Cash - The Hit Collection
DYEAR=1995
DGENRE=Country
TTITLE0=Folsom prison blues
TTITLE1=I walk the line
TTITLE2=There you go
TTITLE3=Cry! Cry! Cry!
TTITLE4=I'm so doggone lonesome
TTITLE5=Train of love
TTITLE6=Next in line
TTITLE7=Straight as in love
TTITLE8=Get rhythm
TTITLE9=Home of the blues
TTITLE10=Give my love to Rose
TTITLE11=Ballad of a teenage queen
TTITLE12=Big river
TTITLE13=Guess things happen that way
TTITLE14=Come in stranger
TTITLE15=You're the nearest thing to heaven
TTITLE16=Luther played the boogie
TTITLE17=Katy too
EXTD=P and C 1995 SCANA 95030
EXTT0=
EXTT1=
EXTT2=
EXTT3=
EXTT4=
EXTT5=
EXTT6=
EXTT7=
EXTT8=
EXTT9=
EXTT10=
EXTT11=
EXTT12=
EXTT13=
EXTT14=
EXTT15=
EXTT16=
EXTT17=
PLAYORDER=
